<?xml version="1.0" standalone="no"?>
<!DOCTYPE svg PUBLIC "-//W3C//DTD SVG 1.0//EN" "http://www.w3.org/TR/2001/REC-SVG-20010904/DTD/svg10.dtd">
<svg xmlns="http://www.w3.org/2000/svg" xmlns:xlink="http://www.w3.org/1999/xlink" id="body_1" width="246" height="246">

<g transform="matrix(1.4375 0 0 1.4375 30.999998 -0)">
    <path d="M64 0C 38.114418 0 14.777695 15.5931015 4.8717117 39.508263C -5.0342712 63.423424 0.44129562 90.95096 18.745167 109.25484C 37.049038 127.5587 64.57658 133.03427 88.49174 123.12829C 112.4069 113.222305 128 89.88558 128 64C 127.96142 28.66977 99.33023 0.03858185 64 0zM64 122C 40.54119 122 19.392284 107.86875 10.414989 86.19564C 1.4376907 64.52252 6.399925 39.57569 22.987808 22.987808C 39.57569 6.399925 64.52252 1.4376907 86.19563 10.414989C 107.86875 19.392284 122 40.54119 122 64C 121.961426 96.016525 96.016525 121.961426 64 122z" stroke="none" fill="#000000" fill-rule="nonzero" />
    <path d="M87.9 42.36L50.42 79.22L40.17 68.43C 39.02051 67.275925 37.160133 67.24994 35.978867 68.37147C 34.797596 69.49299 34.72708 71.35221 35.82 72.56L35.82 72.56L48.17 85.56C 48.723774 86.14114 49.487362 86.47612 50.289997 86.49L50.289997 86.49L50.339996 86.49C 51.125595 86.48935 51.879597 86.180565 52.439995 85.63L52.439995 85.63L92.09 46.629997C 92.854546 45.877953 93.159805 44.775154 92.89079 43.737015C 92.62178 42.698875 91.81936 41.88311 90.7858 41.597015C 89.75223 41.31092 88.64455 41.597954 87.88 42.35L87.88 42.35L87.9 42.36z" stroke="none" fill="#000000" fill-rule="nonzero" />
</g>
</svg>